<?xml version="1.0" standalone="no"?>
<!DOCTYPE svg PUBLIC "-//W3C//DTD SVG 20010904//EN"
 "http://www.w3.org/TR/2001/REC-SVG-20010904/DTD/svg10.dtd">
<svg version="1.0" xmlns="http://www.w3.org/2000/svg"
 width="178.000000pt" height="178.000000pt" viewBox="0 0 178.000000 178.000000"
 preserveAspectRatio="xMidYMid meet">
<metadata>
Created by potrace 1.14, written by Peter Selinger 2001-2017
</metadata>
<g transform="translate(0.000000,178.000000) scale(0.100000,-0.100000)"
fill="#000000" stroke="none">
<path d="M830 1479 c-118 -80 -248 -246 -310 -395 -16 -40 -42 -117 -57 -171
-24 -86 -27 -116 -27 -243 0 -150 11 -210 53 -289 l19 -35 7 45 c9 58 39 125
75 171 l30 36 -22 49 c-31 68 -30 219 2 318 44 140 120 257 203 314 51 34 55
33 136 -43 41 -39 121 -149 121 -168 0 -4 -20 -8 -43 -8 -55 0 -183 -32 -236
-59 -64 -33 -111 -79 -111 -110 0 -33 75 -174 133 -249 86 -111 251 -249 344
-288 67 -29 118 2 147 89 40 118 44 274 12 427 -8 36 -13 66 -12 67 2 2 29 -4
61 -12 66 -18 124 -43 175 -77 l35 -23 -23 32 c-43 60 -131 122 -224 157 -58
22 -62 26 -85 80 -61 145 -196 317 -302 385 -26 17 -50 31 -52 31 -2 0 -24
-14 -49 -31z m297 -594 c15 -65 16 -205 2 -260 -21 -85 -47 -83 -145 8 -71 66
-129 157 -120 189 7 29 79 75 154 99 84 27 95 23 109 -36z"/>
</g>
</svg>
